<?xml version="1.0" standalone="no"?>
<!DOCTYPE svg PUBLIC "-//W3C//DTD SVG 20010904//EN"
 "http://www.w3.org/TR/2001/REC-SVG-20010904/DTD/svg10.dtd">
<svg version="1.0" xmlns="http://www.w3.org/2000/svg"
 width="170.000000pt" height="112.000000pt" viewBox="0 0 170.000000 112.000000"
 preserveAspectRatio="xMidYMid meet">

<g transform="translate(0.000000,112.000000) scale(0.100000,-0.100000)"
fill="#000000" stroke="none">
<path d="M490 973 c0 -33 48 -122 91 -168 54 -58 140 -103 220 -114 58 -8 61
-7 70 16 5 13 9 26 9 27 0 2 -26 6 -57 10 -99 12 -191 68 -236 146 l-19 31 53
-3 52 -3 19 -55 c19 -58 47 -90 79 -90 10 0 19 1 19 3 0 1 -17 49 -38 107
l-37 105 -113 3 c-102 2 -112 1 -112 -15z"/>
<path d="M977 958 c-7 -18 -38 -104 -68 -190 -30 -87 -57 -158 -60 -158 -4 0
-9 13 -12 29 -5 23 -12 30 -39 34 -18 2 -34 4 -35 2 -5 -3 82 -255 87 -255 3
0 44 112 91 248 l86 247 46 3 c40 3 47 7 55 32 6 15 8 31 5 34 -4 3 -37 6 -75
6 -67 0 -68 0 -81 -32z"/>
<path d="M1149 963 c-22 -62 -47 -98 -98 -144 -56 -50 -92 -109 -67 -109 22 0
100 55 139 99 40 44 87 133 87 164 0 30 -49 22 -61 -10z"/>
<path d="M114 220 c12 -33 30 -68 39 -77 15 -15 19 -15 31 -3 8 8 26 43 39 78
21 49 23 62 11 62 -8 0 -18 -10 -23 -22 -5 -13 -16 -41 -26 -63 l-17 -40 -23
60 c-12 33 -30 61 -38 63 -12 3 -11 -8 7 -58z"/>
<path d="M273 268 c-11 -18 -11 -101 0 -115 11 -15 107 -18 107 -4 0 6 -19 11
-42 13 -31 2 -44 8 -46 21 -3 14 4 17 42 17 25 0 46 5 46 10 0 6 -20 10 -45
10 -33 0 -45 4 -45 14 0 10 13 16 42 18 23 2 43 9 46 16 5 17 -94 17 -105 0z"/>
<path d="M433 272 c-22 -14 -33 -60 -22 -89 13 -34 26 -43 65 -43 37 0 57 20
52 52 -2 18 -10 24 -35 26 -19 2 -33 -1 -33 -7 0 -6 11 -11 25 -11 30 0 34
-26 5 -35 -34 -11 -62 12 -58 48 3 30 6 32 47 37 60 7 67 30 9 30 -23 0 -48
-4 -55 -8z"/>
<path d="M591 262 c-6 -10 -19 -42 -30 -71 -16 -40 -18 -51 -7 -51 8 0 25 28
39 63 l25 62 17 -40 c31 -79 35 -85 45 -85 14 0 13 8 -13 75 -25 65 -56 84
-76 47z"/>
<path d="M720 210 c0 -40 4 -70 10 -70 6 0 10 27 10 60 0 33 3 60 8 60 4 0 18
-25 31 -55 28 -66 45 -83 66 -65 17 14 22 140 5 140 -6 0 -10 -27 -10 -60 0
-33 -3 -60 -8 -60 -4 0 -19 27 -34 60 -22 51 -30 60 -52 60 -25 0 -26 -1 -26
-70z"/>
<path d="M910 260 c-47 -47 -11 -120 60 -120 22 0 40 5 40 10 0 6 -13 10 -28
10 -42 0 -64 21 -60 55 3 27 8 31 42 35 55 7 60 30 7 30 -28 0 -48 -7 -61 -20z"/>
<path d="M1050 260 c-44 -44 -11 -120 53 -120 40 0 53 9 65 40 10 28 -1 79
-20 92 -24 15 -78 8 -98 -12z m98 -47 c2 -24 -2 -34 -17 -43 -47 -24 -94 17
-70 62 8 15 19 18 47 16 33 -3 37 -6 40 -35z"/>
<path d="M1224 245 c-7 -19 -21 -51 -29 -71 -13 -32 -13 -35 2 -32 9 2 25 26
36 56 11 28 23 52 27 52 4 0 16 -23 27 -52 21 -55 51 -82 39 -35 -28 112 -74
149 -102 82z"/>
<path d="M1365 266 c-27 -20 -27 -92 0 -112 22 -16 95 -19 95 -4 0 6 -13 10
-28 10 -42 0 -64 21 -60 55 3 27 8 31 42 35 22 3 41 11 44 18 5 17 -69 16 -93
-2z"/>
<path d="M1490 210 c0 -68 15 -98 22 -42 3 24 7 27 38 27 30 0 35 -3 35 -24 0
-13 6 -26 13 -28 9 -4 12 14 12 67 0 53 -3 71 -12 67 -7 -2 -13 -15 -13 -28 0
-21 -5 -24 -35 -24 -31 0 -35 3 -38 28 -7 55 -22 25 -22 -43z"/>
</g>
</svg>
