<?xml version="1.0" standalone="no"?>
<!DOCTYPE svg PUBLIC "-//W3C//DTD SVG 20010904//EN"
 "http://www.w3.org/TR/2001/REC-SVG-20010904/DTD/svg10.dtd">
<svg version="1.0" xmlns="http://www.w3.org/2000/svg"
 width="2036.000000pt" height="500.000000pt" viewBox="0 0 2036.000000 500.000000"
 preserveAspectRatio="xMidYMid meet">

<g transform="translate(0.000000,500.000000) scale(0.100000,-0.100000)"
fill="#000000" stroke="none">
<path d="M1440 4641 c0 -24 63 -248 99 -353 103 -296 253 -568 453 -821 97
-122 320 -347 438 -441 339 -270 771 -475 1170 -555 234 -47 282 -53 476 -58
l200 -6 74 209 c40 115 75 214 77 219 2 6 -80 10 -234 10 -266 0 -371 12 -597
69 -564 143 -1070 505 -1392 996 -61 94 -144 238 -144 253 0 4 174 7 388 7
l387 0 170 -483 170 -482 75 -37 c118 -58 480 -172 495 -156 2 2 -283 814
-521 1481 l-56 157 -864 0 c-528 0 -864 -4 -864 -9z"/>
<path d="M5196 4618 c-8 -18 -195 -544 -416 -1168 -221 -624 -445 -1254 -496
-1399 -52 -145 -95 -265 -97 -267 -1 -1 -42 111 -92 251 l-89 253 -80 6 c-102
9 -313 42 -390 62 -32 8 -59 14 -61 12 -1 -2 158 -454 353 -1006 219 -617 359
-997 364 -989 4 8 194 540 422 1183 362 1021 889 2506 918 2587 l10 27 319 0
319 0 30 60 c52 103 150 369 150 407 0 10 -112 13 -576 13 l-575 0 -13 -32z"/>
<path d="M6475 4583 c-74 -281 -245 -615 -439 -858 -77 -96 -254 -274 -351
-352 -94 -75 -267 -194 -334 -228 l-47 -23 -97 -273 c-54 -150 -95 -275 -92
-277 8 -8 202 72 328 135 276 138 486 291 723 527 328 329 532 655 681 1091
35 104 83 282 83 309 0 14 -27 16 -219 16 l-218 0 -18 -67z"/>
<path d="M11345 3631 c-54 -14 -95 -41 -119 -79 -20 -31 -396 -968 -396 -987
0 -3 46 -4 102 -3 l102 3 167 423 c92 232 172 429 179 437 15 18 64 20 78 3 5
-7 82 -204 170 -438 l160 -425 101 -3 c71 -2 101 1 101 9 0 23 -363 965 -382
992 -30 41 -90 68 -166 72 -37 2 -80 1 -97 -4z"/>
<path d="M12290 3621 c-64 -23 -114 -72 -129 -128 -7 -24 -11 -199 -11 -486
l0 -448 93 3 92 3 3 432 2 433 24 15 c16 11 33 14 51 9 31 -8 53 -51 271 -533
138 -306 160 -338 258 -366 139 -41 284 20 315 132 7 24 11 204 11 486 l0 448
-92 -3 -93 -3 -3 -429 c-1 -297 -6 -433 -13 -443 -17 -19 -76 -16 -95 5 -8 10
-87 175 -175 368 -87 192 -165 363 -173 379 -21 48 -65 94 -108 116 -59 30
-159 34 -228 10z"/>
<path d="M16196 3629 c-52 -12 -101 -51 -125 -97 -23 -45 -381 -950 -381 -963
0 -6 43 -8 101 -7 l101 3 171 435 172 435 34 3 c18 2 38 -1 43 -6 6 -6 83
-203 172 -439 l162 -428 102 -3 c56 -1 102 1 102 5 0 4 -82 224 -182 488 -203
534 -208 542 -301 570 -56 17 -111 18 -171 4z"/>
<path d="M7433 3603 c15 -56 350 -931 368 -962 26 -48 71 -77 138 -92 96 -20
204 8 250 67 18 23 401 972 401 995 0 6 -40 9 -101 7 l-102 -3 -167 -423 c-93
-232 -173 -429 -180 -437 -15 -18 -66 -20 -77 -2 -4 6 -80 203 -168 437 l-161
425 -103 3 c-95 3 -103 1 -98 -15z"/>
<path d="M8933 3605 c-116 -32 -181 -87 -208 -179 -38 -128 2 -258 96 -315
l29 -17 -46 -32 c-64 -46 -94 -113 -94 -212 0 -130 56 -213 177 -261 57 -23
66 -24 383 -24 l325 0 3 92 3 92 -310 3 c-296 3 -311 4 -338 24 -15 11 -35 40
-43 62 -20 58 0 117 50 147 33 19 54 20 333 23 l298 3 -3 82 -3 82 -300 5
c-314 5 -328 7 -359 52 -19 27 -21 97 -4 133 7 15 29 35 50 46 34 17 61 19
328 19 l290 0 0 95 0 95 -302 -1 c-228 0 -316 -4 -355 -14z"/>
<path d="M10134 3605 c-124 -27 -227 -102 -278 -202 -45 -91 -60 -166 -60
-313 0 -198 37 -314 130 -406 96 -96 218 -129 458 -122 173 5 225 21 289 86
64 65 82 121 82 247 0 98 -3 115 -26 160 -29 56 -91 109 -147 125 -20 5 -108
10 -194 10 l-158 0 0 -80 0 -80 131 0 c99 0 139 -4 164 -16 88 -42 85 -201 -5
-247 -30 -16 -56 -18 -195 -15 -144 3 -165 6 -208 27 -100 49 -131 123 -131
311 0 188 31 262 131 311 46 23 60 24 318 29 l270 5 0 90 0 90 -255 2 c-182 1
-273 -2 -316 -12z"/>
<path d="M13824 3605 c-226 -49 -338 -220 -338 -515 0 -249 78 -406 237 -480
88 -41 161 -50 420 -50 l227 0 0 94 0 95 -257 3 -258 3 -53 29 c-86 48 -131
151 -132 300 0 159 48 271 135 316 49 25 53 25 307 28 l258 3 0 95 0 94 -242
-1 c-162 0 -263 -5 -304 -14z"/>
<path d="M14874 3606 c-229 -52 -339 -222 -338 -521 1 -193 38 -310 129 -400
91 -91 202 -125 415 -125 221 0 336 36 424 130 94 101 131 229 123 435 -7 201
-57 320 -172 407 -84 64 -153 81 -350 84 -118 2 -189 -1 -231 -10z m431 -203
c52 -27 79 -57 107 -118 21 -45 23 -65 23 -195 0 -131 -2 -150 -24 -198 -53
-116 -127 -146 -355 -140 -134 3 -157 6 -199 27 -85 42 -124 118 -134 262 -10
153 30 292 100 341 56 40 102 48 277 45 146 -2 170 -5 205 -24z"/>
<path d="M17265 3610 c-179 -36 -298 -154 -341 -336 -21 -90 -21 -277 0 -367
31 -132 111 -243 210 -292 91 -44 170 -55 424 -55 l232 0 0 94 0 95 -257 3
c-243 3 -260 4 -299 25 -99 53 -137 141 -137 313 0 172 38 260 137 313 39 21
56 22 299 25 l257 3 0 95 0 94 -242 -1 c-134 -1 -261 -5 -283 -9z"/>
<path d="M18010 3090 l0 -530 95 0 95 0 0 220 0 220 265 0 265 0 0 -220 0
-220 95 0 95 0 0 530 0 530 -95 0 -95 0 0 -215 0 -215 -265 0 -265 0 0 215 0
215 -95 0 -95 0 0 -530z"/>
<path d="M14396 1774 c-60 -129 -112 -236 -116 -239 -4 -2 -41 71 -83 163 -42
92 -90 198 -107 236 -17 37 -33 66 -35 64 -6 -5 -95 -562 -95 -589 0 -15 7
-19 33 -19 l33 0 24 173 c13 94 26 183 30 196 5 19 25 -18 100 -183 51 -114
97 -203 101 -199 4 4 46 94 94 198 48 105 90 193 94 198 4 4 17 -70 30 -165
30 -230 26 -218 68 -218 32 0 34 2 29 28 -3 15 -24 153 -47 307 -22 154 -42
281 -43 282 -1 1 -51 -103 -110 -233z"/>
<path d="M7690 1697 l0 -307 35 0 35 0 0 222 0 222 142 -150 c78 -82 180 -187
225 -234 l83 -85 0 308 0 308 -32 -3 -33 -3 -5 -219 -5 -219 -204 214 c-112
118 -213 223 -223 234 -17 19 -18 11 -18 -288z"/>
<path d="M9680 1698 l0 -308 35 0 35 0 2 222 3 221 220 -229 c121 -126 223
-230 227 -232 4 -2 8 134 8 302 l0 306 -35 0 -35 0 0 -227 0 -227 -142 150
c-78 82 -182 190 -230 239 l-88 90 0 -307z"/>
<path d="M11417 1970 c-8 -19 -67 -154 -131 -299 -64 -146 -116 -269 -116
-273 0 -5 16 -8 36 -6 35 3 37 6 68 80 l31 78 126 0 125 0 33 -80 33 -80 40 0
c21 0 37 3 35 8 -3 4 -58 131 -122 282 -65 151 -123 286 -130 300 l-13 24 -15
-34z m66 -242 l45 -108 -94 0 c-52 0 -94 2 -94 4 0 2 16 42 36 88 20 45 40 94
45 107 5 13 11 22 13 20 2 -2 24 -52 49 -111z"/>
<path d="M13602 1983 c-10 -17 -160 -359 -228 -515 l-33 -78 38 0 37 0 33 80
33 80 127 0 126 0 30 -78 c30 -75 31 -77 68 -80 20 -2 37 0 37 3 0 6 -250 598
-255 603 -2 2 -8 -5 -13 -15z m57 -255 c23 -53 41 -99 41 -102 0 -9 -180 -7
-180 2 -1 18 86 210 92 204 3 -4 24 -51 47 -104z"/>
<path d="M15547 1713 c-69 -158 -129 -296 -133 -306 -6 -16 -2 -18 31 -15 37
3 39 5 70 78 l32 75 128 0 128 0 30 -77 30 -78 38 0 c36 0 38 2 30 23 -27 69
-244 573 -250 580 -4 4 -64 -122 -134 -280z m177 17 l45 -105 -44 -3 c-25 -2
-67 -2 -94 0 l-49 3 45 108 c25 59 47 106 49 105 1 -2 23 -51 48 -108z"/>
<path d="M16117 1990 c-3 -8 -24 -134 -47 -280 -22 -146 -43 -277 -46 -292 -5
-26 -3 -28 29 -28 42 0 37 -13 68 213 13 92 26 167 29 167 4 0 46 -87 94 -192
48 -106 91 -196 95 -201 4 -4 50 85 102 198 63 138 96 199 100 187 3 -9 17
-97 29 -194 l24 -178 33 0 c19 0 33 5 33 13 1 27 -85 597 -90 597 -3 0 -53
-105 -112 -233 -59 -127 -111 -231 -115 -230 -4 0 -52 97 -105 215 -53 117
-101 222 -107 233 -7 16 -10 17 -14 5z"/>
<path d="M17260 1698 l0 -308 35 0 35 0 2 221 3 222 220 -232 c121 -127 223
-231 228 -231 4 0 6 136 5 303 l-3 302 -32 3 -33 3 0 -228 0 -228 -68 70 c-37
39 -140 147 -230 240 l-162 170 0 -307z"/>
<path d="M8572 1975 c-172 -48 -259 -216 -206 -395 23 -76 107 -159 188 -184
73 -23 162 -18 229 14 46 21 47 24 47 66 l0 44 -42 -30 c-156 -109 -368 1
-368 189 0 192 206 306 362 201 l43 -29 3 30 c5 46 -3 58 -51 79 -61 27 -141
33 -205 15z"/>
<path d="M9161 1975 c-150 -42 -228 -154 -219 -314 6 -94 29 -142 98 -205 133
-118 351 -95 450 49 163 237 -54 546 -329 470z m167 -71 c71 -29 131 -106 146
-185 10 -54 -11 -134 -48 -181 -97 -128 -296 -119 -381 17 -41 66 -47 163 -15
230 25 51 90 111 135 124 48 14 123 12 163 -5z"/>
<path d="M13019 1977 c-68 -19 -133 -62 -168 -109 -111 -151 -62 -369 103
-456 44 -23 64 -27 136 -27 69 0 94 4 133 23 46 23 47 25 47 70 l0 45 -23 -21
c-59 -55 -179 -72 -253 -34 -79 40 -122 101 -131 186 -21 202 186 334 357 228
l51 -32 -3 43 c-3 39 -6 44 -48 64 -57 28 -141 37 -201 20z"/>
<path d="M18511 1975 c-150 -42 -228 -154 -219 -314 6 -93 29 -142 97 -203
133 -120 352 -97 451 47 163 237 -54 546 -329 470z m174 -74 c139 -64 184
-242 91 -363 -97 -128 -296 -119 -381 17 -41 66 -47 163 -15 230 25 51 90 111
135 124 51 15 128 12 170 -8z"/>
<path d="M7450 1685 l0 -295 35 0 35 0 0 295 0 295 -35 0 -35 0 0 -295z"/>
<path d="M10314 1966 c-3 -8 -4 -23 -2 -33 3 -15 15 -19 71 -21 l67 -3 0 -259
0 -260 35 0 35 0 0 260 0 259 73 3 72 3 0 30 0 30 -173 3 c-144 2 -173 0 -178
-12z"/>
<path d="M10770 1686 l0 -296 35 0 35 0 0 125 c0 69 4 125 8 125 5 0 48 -56
96 -125 86 -124 87 -125 127 -125 21 0 39 1 39 3 0 1 -40 58 -88 127 l-88 124
50 25 c61 32 86 75 86 147 0 105 -66 155 -212 162 l-88 4 0 -296z m199 198
c27 -22 31 -32 31 -74 0 -42 -4 -52 -31 -74 -24 -20 -41 -26 -80 -26 l-49 0 0
100 0 100 49 0 c39 0 56 -6 80 -26z"/>
<path d="M12027 1973 c-4 -3 -7 -136 -7 -295 l0 -288 35 0 35 0 0 295 0 295
-28 0 c-16 0 -32 -3 -35 -7z"/>
<path d="M12260 1685 l0 -295 115 0 115 0 0 35 0 35 -80 0 -80 0 0 260 0 260
-35 0 -35 0 0 -295z"/>
<path d="M14750 1685 l0 -295 108 0 c92 0 114 3 152 23 106 53 121 207 26 269
l-32 21 24 46 c16 32 22 57 19 82 -14 107 -78 148 -229 149 l-68 0 0 -295z
m201 196 c37 -37 39 -88 6 -127 -19 -22 -34 -28 -80 -32 l-57 -4 0 96 0 96 51
0 c43 0 55 -5 80 -29z m36 -241 c51 -32 58 -107 14 -151 -27 -27 -35 -29 -105
-29 l-76 0 0 101 0 102 73 -5 c39 -3 82 -11 94 -18z"/>
<path d="M15240 1686 l0 -296 35 0 35 0 -2 293 -3 292 -32 3 -33 3 0 -295z"/>
<path d="M16820 1685 l0 -295 150 0 150 0 0 35 0 35 -115 0 -115 0 0 110 0
110 115 0 115 0 0 30 0 30 -115 0 -115 0 0 85 0 85 115 0 115 0 0 35 0 35
-150 0 -150 0 0 -295z"/>
<path d="M17890 1945 l0 -35 70 0 70 0 0 -260 0 -260 35 0 35 0 0 260 0 260
70 0 70 0 0 35 0 35 -175 0 -175 0 0 -35z"/>
</g>
</svg>
