<?xml version="1.0" standalone="no"?>
<!DOCTYPE svg PUBLIC "-//W3C//DTD SVG 20010904//EN"
 "http://www.w3.org/TR/2001/REC-SVG-20010904/DTD/svg10.dtd">
<svg version="1.0" xmlns="http://www.w3.org/2000/svg"
 width="1288.000000pt" height="847.000000pt" viewBox="0 0 1288.000000 847.000000"
 preserveAspectRatio="xMidYMid meet">

<g transform="translate(0.000000,847.000000) scale(0.100000,-0.100000)"
fill="#000000" stroke="none">
<path d="M3700 7997 c0 -34 62 -256 103 -367 265 -724 808 -1305 1507 -1612
218 -96 423 -157 686 -204 126 -23 180 -27 343 -28 l194 -1 43 120 c23 66 58
163 76 215 l34 95 -240 0 c-255 0 -348 10 -561 60 -641 151 -1213 591 -1530
1178 l-47 87 390 0 390 0 15 -42 c15 -44 301 -851 319 -899 10 -30 101 -76
263 -134 106 -38 303 -90 311 -83 3 4 -124 372 -283 820 l-288 813 -863 3
-862 2 0 -23z"/>
<path d="M7455 8008 c-212 -597 -853 -2407 -917 -2591 -50 -142 -95 -254 -99
-250 -4 4 -46 116 -92 248 l-85 240 -148 17 c-82 9 -201 28 -264 41 -63 14
-116 24 -118 22 -4 -4 698 -1987 707 -1997 3 -4 69 172 147 390 77 218 381
1075 675 1904 l534 1508 321 0 321 0 43 93 c49 102 141 367 134 379 -3 4 -264
8 -580 8 -451 0 -576 -3 -579 -12z"/>
<path d="M8745 8008 c-2 -7 -16 -55 -30 -106 -31 -114 -78 -230 -154 -382
-203 -406 -501 -728 -902 -973 l-104 -64 -95 -269 c-53 -148 -93 -270 -89
-272 12 -5 167 57 294 118 728 351 1282 1023 1490 1811 19 73 32 136 29 140
-3 5 -102 9 -220 9 -163 0 -216 -3 -219 -12z"/>
<path d="M4586 2715 c-84 -30 -90 -42 -296 -563 -104 -265 -190 -487 -190
-492 0 -6 40 -10 99 -10 l99 0 128 323 c225 571 216 550 247 561 21 8 31 6 44
-7 9 -9 89 -209 178 -444 l162 -428 101 -3 c60 -2 102 1 102 7 0 14 -349 930
-371 972 -33 66 -102 99 -203 99 -34 -1 -79 -7 -100 -15z"/>
<path d="M5557 2715 c-60 -22 -93 -51 -119 -103 l-23 -47 0 -455 0 -455 93 -3
92 -3 0 431 c0 417 1 431 20 450 22 22 51 26 79 10 11 -5 93 -173 197 -400 98
-215 191 -406 206 -425 44 -52 106 -77 194 -77 123 0 206 54 234 153 6 20 10
220 10 476 l0 443 -95 0 -95 0 0 -429 c0 -377 -2 -431 -16 -445 -21 -22 -70
-20 -91 3 -10 11 -83 163 -162 338 -215 473 -207 458 -252 496 -64 55 -185 73
-272 42z"/>
<path d="M9458 2720 c-44 -13 -83 -40 -106 -73 -22 -33 -392 -960 -392 -983 0
-19 183 -20 197 -1 6 6 83 199 173 427 89 228 171 424 181 435 15 15 24 17 46
9 30 -10 10 37 276 -664 l82 -215 103 -3 104 -3 -8 23 c-4 13 -87 234 -185
493 -165 434 -182 473 -218 507 -21 20 -56 41 -77 47 -45 12 -137 13 -176 1z"/>
<path d="M702 2692 c3 -10 85 -231 183 -490 155 -411 182 -476 213 -507 41
-40 91 -57 174 -57 103 0 169 36 208 112 17 34 380 946 380 955 0 3 -46 5
-102 5 l-103 0 -169 -428 c-93 -235 -173 -433 -179 -439 -12 -17 -63 -17 -74
-1 -4 7 -81 204 -169 438 l-161 425 -103 3 c-96 3 -102 1 -98 -16z"/>
<path d="M2170 2687 c-132 -45 -190 -125 -190 -262 0 -105 37 -178 115 -226
17 -11 24 -19 17 -19 -7 0 -32 -18 -57 -41 -134 -124 -94 -375 73 -447 79 -34
162 -42 455 -42 l277 0 0 94 0 95 -297 3 c-262 3 -302 5 -330 21 -45 24 -66
69 -60 124 6 53 36 89 86 103 20 5 161 10 314 10 l277 0 0 85 0 85 -277 0
c-160 0 -294 4 -315 10 -53 15 -78 51 -78 114 0 58 17 89 60 111 24 12 82 15
325 15 l295 0 0 95 0 95 -312 0 c-297 -1 -316 -2 -378 -23z"/>
<path d="M3380 2692 c-211 -55 -320 -231 -320 -514 1 -208 67 -368 187 -447
77 -51 160 -72 313 -78 340 -14 466 77 465 337 -1 146 -44 225 -149 271 -46
21 -67 23 -216 23 l-165 1 0 -80 0 -80 145 -5 c87 -3 154 -10 166 -17 57 -32
67 -155 18 -213 -38 -44 -82 -53 -240 -48 -124 3 -145 6 -196 30 -105 49 -144
146 -136 343 7 163 43 234 143 281 49 23 58 24 313 24 l262 0 0 95 0 95 -262
-1 c-214 0 -275 -3 -328 -17z"/>
<path d="M7078 2694 c-205 -49 -312 -204 -325 -469 -15 -294 89 -481 302 -548
64 -20 91 -22 325 -22 l255 0 3 92 3 91 -253 4 c-253 3 -253 3 -309 31 -105
51 -145 151 -137 342 7 158 41 229 133 278 37 20 58 22 300 27 l260 5 3 93 3
92 -253 -1 c-179 0 -270 -5 -310 -15z"/>
<path d="M8128 2694 c-208 -50 -314 -206 -325 -479 -12 -294 87 -470 302 -538
61 -19 92 -22 245 -22 153 0 184 3 245 22 150 47 230 132 282 298 14 47 18 92
17 210 0 137 -2 157 -27 229 -56 161 -145 245 -299 281 -82 19 -360 19 -440
-1z m449 -201 c49 -26 86 -71 110 -134 12 -33 17 -77 17 -180 l1 -136 -35 -69
c-32 -62 -41 -71 -94 -99 -59 -30 -60 -30 -225 -30 -159 0 -168 1 -223 27
-105 49 -144 146 -136 343 7 177 55 257 178 296 14 4 102 7 195 6 154 -2 174
-4 212 -24z"/>
<path d="M10505 2696 c-167 -40 -275 -158 -316 -341 -7 -33 -13 -114 -13 -180
0 -192 42 -313 140 -405 103 -98 198 -119 522 -120 l222 0 0 94 0 94 -252 4
c-276 4 -301 9 -361 66 -64 61 -94 176 -84 322 10 141 49 219 130 263 40 21
55 22 305 25 l262 3 0 95 0 94 -252 -1 c-163 0 -271 -5 -303 -13z"/>
<path d="M11280 2180 l0 -531 93 3 92 3 3 218 2 217 265 0 265 0 0 -220 0
-220 95 0 95 0 0 530 0 530 -95 0 -95 0 0 -215 0 -215 -265 0 -265 0 0 215 0
215 -95 0 -95 0 0 -530z"/>
<path d="M7316 1073 c-3 -15 -24 -143 -46 -283 -22 -140 -42 -267 -44 -282 -5
-26 -3 -28 29 -28 41 0 37 -13 65 200 12 85 24 163 28 173 5 13 34 -41 101
-188 51 -113 95 -205 96 -205 1 0 44 92 96 204 52 112 96 202 99 199 3 -2 16
-89 30 -191 l26 -187 34 0 c19 0 34 5 34 10 -24 185 -89 603 -94 598 -4 -5
-53 -109 -110 -233 -57 -124 -106 -229 -110 -233 -4 -4 -56 99 -115 230 -59
131 -109 239 -111 241 -1 2 -5 -9 -8 -25z"/>
<path d="M9342 827 c-23 -149 -45 -289 -48 -309 -7 -38 -7 -38 29 -38 l35 0
12 88 c7 48 20 139 29 201 l16 115 54 -120 c30 -65 74 -162 98 -214 l44 -94
99 214 c55 118 100 211 100 205 0 -5 11 -93 25 -194 14 -101 25 -187 25 -192
0 -5 16 -9 35 -9 21 0 35 5 35 13 0 23 -87 597 -91 601 -2 2 -53 -104 -114
-235 -60 -131 -113 -235 -117 -231 -4 4 -53 108 -109 232 -56 124 -105 228
-108 232 -4 4 -26 -115 -49 -265z"/>
<path d="M960 786 l0 -306 30 0 30 0 0 227 0 227 147 -154 c81 -85 185 -193
230 -240 l83 -85 0 308 0 307 -35 0 -35 0 0 -222 0 -223 -103 105 c-56 58
-158 163 -225 233 l-122 129 0 -306z"/>
<path d="M2950 788 l0 -308 35 0 35 0 2 222 3 221 220 -229 c121 -126 223
-230 227 -232 4 -2 8 134 8 302 l0 306 -35 0 -35 0 0 -227 0 -227 -142 150
c-78 82 -182 190 -230 239 l-88 90 0 -307z"/>
<path d="M4570 803 c-69 -157 -128 -294 -132 -305 -6 -15 -2 -18 30 -18 38 0
38 0 73 83 l35 82 124 0 124 0 32 -80 c31 -78 33 -80 68 -83 20 -2 36 0 36 5
1 14 -253 603 -259 603 -3 0 -62 -129 -131 -287z m178 24 c23 -57 42 -106 42
-110 0 -4 -42 -7 -94 -7 l-94 0 46 110 c26 60 49 110 52 110 3 0 24 -47 48
-103z"/>
<path d="M6747 801 c-70 -159 -130 -297 -133 -306 -6 -14 -1 -16 32 -13 38 3
39 4 73 86 l35 82 122 0 121 0 35 -82 c34 -82 35 -83 72 -86 23 -2 37 1 35 7
-17 48 -255 601 -260 601 -3 0 -62 -130 -132 -289z m182 15 c23 -55 39 -101
37 -103 -2 -2 -44 -2 -94 -1 l-90 3 46 108 c25 59 49 104 53 100 4 -4 25 -53
48 -107z"/>
<path d="M8922 1049 c-11 -24 -70 -158 -131 -297 -61 -140 -111 -258 -111
-263 0 -5 15 -9 34 -9 33 0 35 2 69 83 l36 82 122 0 123 0 35 -82 c35 -83 35
-83 73 -83 l37 0 -43 103 c-118 280 -210 493 -217 501 -5 5 -17 -10 -27 -35z
m72 -232 l45 -107 -95 0 c-52 0 -94 2 -94 6 0 5 79 193 87 207 7 12 8 11 57
-106z"/>
<path d="M10530 788 l0 -308 35 0 35 0 0 223 0 222 78 -80 c43 -44 144 -150
225 -235 l147 -154 0 307 0 307 -35 0 -35 0 0 -222 0 -223 -162 170 c-90 94
-191 199 -225 235 l-63 65 0 -307z"/>
<path d="M1835 1067 c-97 -32 -171 -100 -199 -184 -20 -60 -20 -157 0 -216 22
-64 91 -139 156 -168 76 -34 184 -33 253 1 47 24 50 28 53 67 l3 43 -52 -32
c-112 -70 -258 -40 -323 65 -31 51 -44 126 -32 190 10 56 60 121 117 151 44
25 59 28 119 24 55 -3 77 -10 119 -36 l52 -32 -3 43 c-3 39 -6 43 -53 67 -59
29 -150 36 -210 17z"/>
<path d="M2412 1063 c-36 -11 -71 -32 -107 -64 -163 -150 -122 -409 80 -501
70 -32 180 -31 253 1 182 81 232 329 97 479 -78 87 -207 121 -323 85z m193
-72 c86 -39 135 -117 135 -216 0 -75 -24 -128 -77 -176 -51 -46 -100 -62 -173
-57 -226 16 -295 317 -100 436 46 27 64 32 115 32 37 0 76 -8 100 -19z"/>
<path d="M6275 1067 c-67 -23 -101 -44 -142 -91 -131 -149 -79 -397 99 -477
76 -34 184 -33 253 1 47 24 50 28 53 67 l3 43 -51 -32 c-59 -37 -144 -48 -205
-28 -50 16 -114 75 -136 125 -21 45 -24 121 -8 178 13 48 70 112 122 139 62
31 158 23 226 -20 l52 -32 -3 42 c-3 39 -7 45 -47 67 -53 29 -156 37 -216 18z"/>
<path d="M11762 1063 c-36 -11 -71 -32 -107 -64 -163 -150 -122 -409 80 -501
70 -32 180 -31 253 1 189 85 235 349 85 493 -78 75 -204 104 -311 71z m193
-72 c86 -39 135 -117 135 -216 0 -75 -24 -128 -77 -176 -51 -46 -100 -62 -173
-57 -226 16 -294 317 -100 436 46 27 64 32 115 32 37 0 76 -8 100 -19z"/>
<path d="M720 775 l0 -295 35 0 35 0 0 295 0 295 -35 0 -35 0 0 -295z"/>
<path d="M3582 1038 l3 -33 68 -3 67 -3 0 -259 0 -260 35 0 35 0 0 260 0 260
70 0 70 0 0 35 0 35 -176 0 -175 0 3 -32z"/>
<path d="M4040 776 l0 -297 33 3 32 3 5 130 5 130 90 -129 c49 -70 95 -130
101 -133 7 -2 26 -3 43 -1 l31 3 -89 125 c-49 69 -87 128 -85 132 3 5 14 8 24
8 29 0 87 56 101 97 15 46 6 118 -18 152 -37 49 -79 65 -180 69 l-93 4 0 -296z
m183 212 c12 -6 27 -18 34 -27 15 -20 17 -85 3 -112 -15 -27 -63 -49 -110 -49
l-40 0 0 100 0 100 46 0 c25 0 55 -5 67 -12z"/>
<path d="M5290 775 l0 -295 35 0 35 0 0 295 0 295 -35 0 -35 0 0 -295z"/>
<path d="M5530 775 l0 -295 115 0 115 0 0 35 0 35 -80 0 -80 0 0 260 0 260
-35 0 -35 0 0 -295z"/>
<path d="M8020 776 l0 -296 93 0 c117 0 162 13 208 59 49 49 60 109 31 174
-11 25 -33 53 -49 63 -15 10 -30 19 -31 20 -2 1 6 16 18 32 29 39 30 117 3
164 -31 53 -74 72 -180 76 l-93 4 0 -296z m201 195 c33 -33 37 -67 14 -111
-16 -30 -62 -50 -117 -50 l-28 0 0 95 0 95 51 0 c43 0 55 -5 80 -29z m24 -236
c50 -24 67 -77 43 -130 -17 -38 -58 -55 -133 -55 l-65 0 0 100 0 100 61 0 c34
0 75 -7 94 -15z"/>
<path d="M8502 778 l3 -293 33 -3 32 -3 0 295 0 296 -35 0 -35 0 2 -292z"/>
<path d="M10082 778 l3 -293 153 -3 152 -3 0 36 0 35 -120 0 -120 0 0 110 0
110 121 0 120 0 -3 33 -3 32 -117 3 -118 3 0 79 0 80 120 0 120 0 0 35 0 35
-155 0 -155 0 2 -292z"/>
<path d="M11160 1035 l0 -35 70 0 70 0 0 -260 0 -260 35 0 35 0 0 260 0 260
70 0 70 0 0 35 0 35 -175 0 -175 0 0 -35z"/>
</g>
</svg>
