<?xml version="1.0" standalone="no"?>
<!DOCTYPE svg PUBLIC "-//W3C//DTD SVG 20010904//EN"
 "http://www.w3.org/TR/2001/REC-SVG-20010904/DTD/svg10.dtd">
<svg version="1.0" xmlns="http://www.w3.org/2000/svg"
 width="1150.000000pt" height="757.000000pt" viewBox="0 0 1150.000000 757.000000"
 preserveAspectRatio="xMidYMid meet">

<g transform="translate(0.000000,757.000000) scale(0.100000,-0.100000)"
fill="#000000" stroke="none">
<path d="M3010 5906 c0 -39 84 -320 128 -431 219 -548 585 -1000 1071 -1322
430 -286 967 -455 1450 -457 l184 -1 42 120 c24 66 58 163 77 215 l34 95 -235
0 c-259 0 -361 12 -576 64 -417 103 -805 322 -1111 627 -159 159 -305 354
-409 547 l-47 87 390 0 390 0 10 -27 c18 -50 304 -857 319 -899 13 -38 21 -45
92 -77 140 -64 472 -169 488 -154 4 5 -559 1606 -573 1628 -3 5 -388 9 -865 9
l-859 0 0 -24z"/>
<path d="M6765 5918 c-5 -14 -760 -2145 -918 -2591 -50 -141 -94 -254 -98
-250 -4 5 -45 114 -90 243 -45 129 -85 238 -88 241 -3 4 -71 14 -151 23 -80 9
-197 27 -260 40 -63 13 -116 23 -118 21 -2 -2 658 -1873 700 -1985 8 -21 25
19 122 290 61 173 366 1032 676 1907 l565 1593 321 0 321 0 36 79 c50 108 91
213 116 296 12 39 24 78 27 88 5 16 -27 17 -576 17 -455 0 -582 -3 -585 -12z"/>
<path d="M8055 5918 c-2 -7 -14 -49 -26 -93 -67 -249 -242 -583 -429 -820
-150 -190 -401 -408 -630 -547 l-104 -63 -96 -270 c-53 -149 -94 -271 -90
-273 18 -7 279 105 415 181 488 268 891 681 1145 1170 118 227 195 440 254
700 l6 27 -220 0 c-168 0 -222 -3 -225 -12z"/>
</g>
</svg>
