<?xml version="1.0" standalone="no"?>
<!DOCTYPE svg PUBLIC "-//W3C//DTD SVG 20010904//EN"
 "http://www.w3.org/TR/2001/REC-SVG-20010904/DTD/svg10.dtd">
<svg version="1.0" xmlns="http://www.w3.org/2000/svg"
 width="500.000000pt" height="500.000000pt" viewBox="0 0 500.000000 500.000000"
 preserveAspectRatio="xMidYMid meet">
<metadata>
Created by Shamsuddin Ahmed
</metadata>
<g transform="translate(0.000000,500.000000) scale(0.100000,-0.100000)"
fill="#000000" stroke="none">
<path d="M3003 3665 c-17 -7 -36 -23 -43 -34 -6 -12 -21 -21 -33 -21 -72 -1
-174 -92 -196 -175 -7 -28 -15 -56 -17 -62 -2 -10 -35 -13 -118 -13 -104 0
-116 -2 -126 -19 -23 -44 -17 -46 120 -43 l130 4 0 -161 0 -161 30 0 30 0 0
162 0 161 148 -6 c226 -10 316 -29 437 -89 129 -65 231 -169 300 -306 43 -85
63 -165 67 -267 4 -117 -4 -773 -9 -752 -3 11 -14 17 -34 17 -16 0 -29 4 -29
8 0 9 -150 25 -247 26 -28 1 -49 4 -46 9 2 4 -3 7 -12 7 -12 0 -10 6 10 27 41
45 28 44 -17 -2 -27 -26 -65 -50 -102 -64 -58 -21 -67 -22 -510 -19 -447 3
-451 3 -501 26 -112 52 -184 173 -172 289 14 138 134 263 254 263 25 0 33 3
25 9 -8 5 -38 9 -67 9 -42 0 -55 -3 -58 -16 -3 -9 -5 -1 -6 18 -1 30 -16 49
-126 157 -74 74 -132 123 -144 123 -27 0 -102 -89 -142 -166 -17 -35 -34 -64
-37 -64 -13 0 8 201 27 260 11 36 21 66 21 68 0 1 -14 2 -30 2 -36 0 -44 -17
-66 -130 -11 -60 -14 -172 -12 -555 l3 -480 25 0 c23 0 25 4 30 58 l5 57 39
-76 c68 -133 201 -246 344 -293 146 -47 505 -76 760 -61 292 18 436 47 549
112 111 62 216 184 255 293 l18 50 -4 -75 c-9 -150 -88 -313 -211 -435 -120
-121 -286 -201 -442 -212 l-73 -6 0 52 0 51 -184 0 -185 0 -20 -26 c-18 -22
-21 -41 -21 -111 0 -76 2 -86 25 -108 24 -25 26 -25 204 -25 l180 0 3 53 3 52
72 6 c343 31 631 297 703 650 20 99 21 125 17 554 -4 509 -5 515 -82 670 -55
110 -146 214 -249 283 -138 92 -278 128 -538 139 -142 6 -148 7 -148 27 1 65
73 149 138 162 27 5 37 2 57 -20 28 -30 87 -36 122 -11 24 17 39 71 28 104
-13 43 -75 66 -122 46z"/>
</g>
</svg>
